<svg width="191" height="183" viewBox="0 0 191 183" fill="none" xmlns="http://www.w3.org/2000/svg">
<circle cx="7.88079" cy="7.88079" r="7.88079" transform="matrix(1 0 0 -1 174.954 101.662)" fill="#122771"/>
<circle cx="7.88079" cy="7.88079" r="7.88079" transform="matrix(1 0 0 -1 0 101.662)" fill="#122771"/>
<path d="M186.775 91.4172C186.775 79.4121 184.41 67.5246 179.816 56.4334C175.222 45.3421 168.488 35.2644 159.999 26.7755C151.511 18.2866 141.433 11.5529 130.342 6.95872C119.25 2.36458 107.363 -5.24759e-07 95.3576 0C83.3526 5.24759e-07 71.465 2.36458 60.3738 6.95872C49.2825 11.5529 39.2048 18.2866 30.7159 26.7755C22.227 35.2644 15.4933 45.3421 10.8991 56.4334C6.305 67.5246 3.94043 79.4121 3.94043 91.4172H10.1873C10.1873 80.2325 12.3903 69.1573 16.6705 58.8239C20.9507 48.4906 27.2243 39.1015 35.1331 31.1927C43.0419 23.2839 52.431 17.0103 62.7644 12.73C73.0977 8.44983 84.1729 6.24683 95.3577 6.24683C106.542 6.24683 117.618 8.44983 127.951 12.73C138.284 17.0103 147.673 23.2839 155.582 31.1927C163.491 39.1015 169.765 48.4906 174.045 58.8239C178.325 69.1573 180.528 80.2325 180.528 91.4172H186.775Z" fill="#122771"/>
</svg>
