<svg width="64" height="64" viewBox="0 0 64 64" fill="none" xmlns="http://www.w3.org/2000/svg">
<path d="M32.4004 44V49.6" stroke="#3B5099" stroke-width="6" stroke-linecap="round" stroke-linejoin="round"/>
<path d="M19.0664 58.6666H45.7331V56C45.7331 53.0666 43.3331 50.6666 40.3997 50.6666H24.3997C21.4664 50.6666 19.0664 53.0666 19.0664 56V58.6666V58.6666Z" stroke="#3B5099" stroke-width="6" stroke-miterlimit="10"/>
<path d="M16.4004 58.6666H48.4004" stroke="#3B5099" stroke-width="6" stroke-linecap="round" stroke-linejoin="round"/>
<path d="M32.0006 42.6667C21.6807 42.6667 13.334 34.32 13.334 24V16C13.334 10.1067 18.1073 5.33337 24.0007 5.33337H40.0006C45.894 5.33337 50.6673 10.1067 50.6673 16V24C50.6673 34.32 42.3206 42.6667 32.0006 42.6667Z" stroke="#3B5099" stroke-width="6" stroke-linecap="round" stroke-linejoin="round"/>
<path d="M14.5861 31.0666C12.5861 30.4266 10.8261 29.2533 9.43945 27.8666C7.03945 25.2 5.43945 22 5.43945 18.2666C5.43945 14.5333 8.37279 11.6 12.1061 11.6H13.8395C13.3061 12.8266 13.0395 14.1866 13.0395 15.6V23.6C13.0395 26.2666 13.5995 28.7733 14.5861 31.0666Z" stroke="#3B5099" stroke-width="6" stroke-linecap="round" stroke-linejoin="round"/>
<path d="M49.4141 31.0666C51.4141 30.4266 53.1741 29.2533 54.5607 27.8666C56.9607 25.2 58.5607 22 58.5607 18.2666C58.5607 14.5333 55.6274 11.6 51.8941 11.6H50.1607C50.6941 12.8266 50.9607 14.1866 50.9607 15.6V23.6C50.9607 26.2666 50.4007 28.7733 49.4141 31.0666Z" stroke="#3B5099" stroke-width="6" stroke-linecap="round" stroke-linejoin="round"/>
</svg>
