<svg width="184" height="184" viewBox="0 0 184 184" fill="none" xmlns="http://www.w3.org/2000/svg">
<circle cx="7.88079" cy="7.88079" r="7.88079" transform="matrix(-1 -8.74228e-08 -8.74228e-08 1 20.0732 120.517)" fill="#3B5099"/>
<circle cx="7.88079" cy="7.88079" r="7.88079" transform="matrix(-1 -8.74228e-08 -8.74228e-08 1 178.477 124.457)" fill="#3B5099"/>
<path d="M8.01558 128.741C14.9408 144.594 26.2222 158.157 40.549 167.853C54.8758 177.55 71.6598 182.982 88.9511 183.519C106.242 184.056 123.331 179.675 138.232 170.886C153.133 162.098 165.234 149.261 173.129 133.868L167.571 131.017C160.215 145.358 148.941 157.318 135.058 165.506C121.176 173.694 105.255 177.775 89.145 177.275C73.0353 176.775 57.3981 171.714 44.0504 162.68C30.7026 153.646 20.1921 141.01 13.74 126.241L8.01558 128.741Z" fill="#3B5099"/>
</svg>
