<svg width="64" height="64" viewBox="0 0 64 64" fill="none" xmlns="http://www.w3.org/2000/svg">
<path d="M32 40C36.4183 40 40 36.4183 40 32C40 27.5817 36.4183 24 32 24C27.5817 24 24 27.5817 24 32C24 36.4183 27.5817 40 32 40Z" stroke="#FC9802" stroke-width="6" stroke-miterlimit="10" stroke-linecap="round" stroke-linejoin="round"/>
<path d="M5.33398 34.3467V29.6533C5.33398 26.88 7.60065 24.5867 10.4007 24.5867C15.2273 24.5867 17.2007 21.1733 14.774 16.9867C13.3873 14.5867 14.214 11.4667 16.6407 10.08L21.254 7.43999C23.3607 6.18666 26.0807 6.93333 27.334 9.03999L27.6273 9.54666C30.0273 13.7333 33.974 13.7333 36.4007 9.54666L36.694 9.03999C37.9473 6.93333 40.6673 6.18666 42.774 7.43999L47.3873 10.08C49.814 11.4667 50.6407 14.5867 49.254 16.9867C46.8273 21.1733 48.8007 24.5867 53.6273 24.5867C56.4007 24.5867 58.694 26.8533 58.694 29.6533V34.3467C58.694 37.12 56.4273 39.4133 53.6273 39.4133C48.8007 39.4133 46.8273 42.8267 49.254 47.0133C50.6407 49.44 49.814 52.5333 47.3873 53.92L42.774 56.56C40.6673 57.8133 37.9473 57.0667 36.694 54.96L36.4007 54.4533C34.0007 50.2667 30.054 50.2667 27.6273 54.4533L27.334 54.96C26.0807 57.0667 23.3607 57.8133 21.254 56.56L16.6407 53.92C14.214 52.5333 13.3873 49.4133 14.774 47.0133C17.2007 42.8267 15.2273 39.4133 10.4007 39.4133C7.60065 39.4133 5.33398 37.12 5.33398 34.3467Z" stroke="#FC9802" stroke-width="6" stroke-miterlimit="10" stroke-linecap="round" stroke-linejoin="round"/>
</svg>
