<svg width="172" height="172" viewBox="0 0 172 172" fill="none" xmlns="http://www.w3.org/2000/svg">
<path d="M172 86C172 133.496 133.496 172 86 172C38.5035 172 0 133.496 0 86C0 38.5035 38.5035 0 86 0C133.496 0 172 38.5035 172 86ZM28.2448 86C28.2448 117.897 54.1027 143.755 86 143.755C117.897 143.755 143.755 117.897 143.755 86C143.755 54.1027 117.897 28.2448 86 28.2448C54.1027 28.2448 28.2448 54.1027 28.2448 86Z" fill="black"/>
<path d="M172 86C172 84.1979 171.943 82.3962 171.83 80.5976L143.641 82.3719C143.717 83.5798 143.755 84.7897 143.755 86H172Z" fill="white"/>
<path d="M166.215 54.991C165.565 53.3101 164.863 51.65 164.109 50.0133L138.456 61.8323C138.962 62.9315 139.434 64.0464 139.87 65.1752L166.215 54.991Z" fill="white"/>
<path d="M146.811 25.1888C145.537 23.9145 144.223 22.6806 142.871 21.4889L124.193 42.6761C125.101 43.4765 125.983 44.3051 126.839 45.1609L146.811 25.1888Z" fill="white"/>
<path d="M120.853 7.37915C119.206 6.6488 117.536 5.97041 115.846 5.345L106.044 31.8344C107.179 32.2544 108.3 32.7099 109.407 33.2004L120.853 7.37915Z" fill="white"/>
<path d="M146.811 146.811C148.085 145.537 149.319 144.223 150.511 142.871L129.324 124.193C128.524 125.101 127.695 125.983 126.839 126.839L146.811 146.811Z" fill="white"/>
<path d="M164.654 120.778C165.383 119.13 166.06 117.459 166.684 115.768L140.185 105.991C139.766 107.127 139.311 108.249 138.822 109.356L164.654 120.778Z" fill="white"/>
<path d="M88.4353 0.0344866C86.6339 -0.0165441 84.8313 -0.01094 83.0303 0.0512906L84.0056 28.2792C85.2151 28.2375 86.4257 28.2337 87.6355 28.268L88.4353 0.0344866Z" fill="white"/>
<path d="M55.2267 5.69429C53.5439 6.33915 51.8818 7.03673 50.2429 7.78602L61.9865 33.4737C63.0872 32.9705 64.2034 32.502 65.3335 32.0689L55.2267 5.69429Z" fill="white"/>
<path d="M0.170108 80.5936C0.0568163 82.3921 8.57569e-05 84.1938 9.71525e-08 85.9959L28.2448 85.9973C28.2449 84.787 28.283 83.577 28.359 82.3692L0.170108 80.5936Z" fill="white"/>
<path d="M4.537 113.564C5.1146 115.271 5.74572 116.96 6.42941 118.627L32.5626 107.911C32.1035 106.792 31.6796 105.658 31.2917 104.511L4.537 113.564Z" fill="white"/>
<path d="M27.5533 22.9129C26.2313 24.1376 24.9482 25.4036 23.7057 26.709L44.1649 46.1818C44.9993 45.3052 45.861 44.455 46.7488 43.6324L27.5533 22.9129Z" fill="white"/>
<path d="M7.71578 50.3969C6.96972 52.0373 6.2754 53.7008 5.63386 55.3849L32.0283 65.4398C32.4592 64.3088 32.9255 63.1916 33.4265 62.09L7.71578 50.3969Z" fill="white"/>
<path d="M22.6799 144.194C23.8994 145.521 25.1603 146.809 26.4606 148.057L46.015 127.676C45.1417 126.838 44.295 125.973 43.476 125.082L22.6799 144.194Z" fill="white"/>
<path d="M50.3185 164.249C51.9582 164.996 53.621 165.692 55.3044 166.335L65.3857 139.951C64.2551 139.519 63.1385 139.052 62.0373 138.55L50.3185 164.249Z" fill="white"/>
<path d="M86 172C87.8021 172 89.6038 171.943 91.4024 171.83L89.6281 143.641C88.4202 143.717 87.2103 143.755 86 143.755V172Z" fill="white"/>
<path d="M116.906 166.255C118.588 165.607 120.249 164.907 121.886 164.155L110.1 138.487C109 138.992 107.885 139.462 106.756 139.897L116.906 166.255Z" fill="white"/>
<circle cx="86.0001" cy="86" r="58.0191" fill="#181818"/>
</svg>
